<?xml version="1.0" encoding="UTF-8" standalone="no"?>
<!-- Created with Inkscape (http://www.inkscape.org/) -->

<svg
   width="100mm"
   height="100mm"
   viewBox="0 0 100 100"
   version="1.1"
   id="svg1"
   xml:space="preserve"
   inkscape:version="1.4.3 (1:1.4.3+202512261035+0d15f75042)"
   sodipodi:docname="virdant-logo-white-transparent.svg"
   xmlns:inkscape="http://www.inkscape.org/namespaces/inkscape"
   xmlns:sodipodi="http://sodipodi.sourceforge.net/DTD/sodipodi-0.dtd"
   xmlns="http://www.w3.org/2000/svg"
   xmlns:svg="http://www.w3.org/2000/svg"><sodipodi:namedview
     id="namedview1"
     pagecolor="#ffffff"
     bordercolor="#000000"
     borderopacity="0.25"
     inkscape:showpageshadow="2"
     inkscape:pageopacity="0.0"
     inkscape:pagecheckerboard="true"
     inkscape:deskcolor="#d1d1d1"
     inkscape:document-units="mm"
     inkscape:zoom="4"
     inkscape:cx="288.25"
     inkscape:cy="47.75"
     inkscape:window-width="1440"
     inkscape:window-height="891"
     inkscape:window-x="0"
     inkscape:window-y="0"
     inkscape:window-maximized="1"
     inkscape:current-layer="layer2" /><defs
     id="defs1" /><g
     inkscape:groupmode="layer"
     id="layer2"
     inkscape:label="Layer 2"
     style="display:inline"><rect
       style="fill:#ffffff;fill-opacity:1;stroke:none"
       id="background-rect"
       x="0"
       y="0"
       width="100"
       height="100"
       rx="7"
       ry="7" /><path
       style="fill:#8fc225;fill-opacity:1;stroke:#8fc225;stroke-width:0.9;stroke-linecap:round;stroke-dasharray:none;stroke-opacity:1"
       d="m 5.5,42.201041 c 0,0 19.693361,8.973927 35.664925,18.167606 7.896886,4.545669 7.691889,13.308644 7.795522,34.131353 H 15.041526 C 12.188421,94.476614 8.9577036,94.987686 7.03821,92.874894 5.3654543,91.033687 5.523386,86.712434 5.5,84.210123 Z"
       id="path2"
       sodipodi:nodetypes="csccscc" /><path
       style="fill:#8fc225;fill-opacity:1;stroke:#8fc225;stroke-width:0.9;stroke-linecap:round;stroke-dasharray:none;stroke-opacity:1"
       d="M 94.5,39.738973 V 15.789877 C 94.476614,13.287566 94.511075,8.7809648 92.96179,7.125106 91.412505,5.4692472 87.811579,5.523386 84.958474,5.5 L 15.766495,5.4766139 C 12.91339,5.4999999 8.9525333,5.1473823 7.03821,7.125106 4.7100565,9.5303655 5.523386,13.287566 5.5,15.789877 c 29.714954,13.856882 33.863199,16.14244 44.825037,22.910816 7.383828,4.559137 5.244843,15.174613 5.450722,40.535914 0.03682,4.535803 -0.128202,8.86873 -0.04635,15.263393 h 3.081975 C 58.770432,81.785104 58.42001,72.462437 59.07482,63.66927 60.290896,56.653445 65.40617,55.256577 70.680981,52.097512 76.493558,48.616381 84.115979,45.224165 94.5,39.738973 Z"
       id="path3"
       sodipodi:nodetypes="cczccscsscccsc" /><path
       style="fill:#8fc225;fill-opacity:1;stroke:#8fc225;stroke-width:0.9;stroke-linecap:round;stroke-dasharray:none;stroke-opacity:1"
       d="M 70.634971,76.268729 C 83.821876,70.057715 82.336561,70.949675 94.5,65.67811 v 18.532013 c -0.02339,2.502311 0.633359,6.780592 -1.53821,8.664771 -2.528408,2.193793 -5.150211,1.60172 -8.003316,1.625106 H 63.267376 c -0.0015,-12.752454 3.260165,-14.907031 7.367595,-18.231271 z"
       id="path4"
       sodipodi:nodetypes="cccsccc" /></g></svg>
